<svg width="24" height="24" viewBox="0 0 24 24" fill="none" xmlns="http://www.w3.org/2000/svg">
<path d="M8.43122 6.99582C8.64786 6.93777 8.87054 7.06633 8.92859 7.28297C8.98663 7.49961 8.85807 7.72229 8.64143 7.78034L7.07239 8.20076C6.85575 8.25881 6.63307 8.13025 6.57502 7.91361C6.51697 7.69697 6.64554 7.47429 6.86218 7.41624L8.43122 6.99582Z" fill="#7B61FF"/>
<path d="M8.23066 6.79666C8.4473 6.73861 8.66998 6.86717 8.72802 7.08381C8.78607 7.30045 8.65751 7.52313 8.44087 7.58118L6.87183 8.0016C6.65519 8.05965 6.43251 7.93109 6.37446 7.71445C6.31641 7.49781 6.44497 7.27513 6.66161 7.21708L8.23066 6.79666Z" stroke="#12252C" stroke-width="0.2" stroke-linecap="round"/>
<path d="M15.5537 3.10133L15.6184 2.85984L15.5537 3.10133ZM17.9857 3.75298L18.0504 3.5115L17.9857 3.75298ZM18.0223 7.55993L18.1958 7.73993L18.0223 7.55993ZM17.5143 8.0359C17.3764 8.04313 17.2587 7.93721 17.2515 7.79933C17.2443 7.66144 17.3502 7.54381 17.4881 7.53659L17.5143 8.0359ZM18.5317 3.94043L18.3955 4.15009L18.5317 3.94043ZM19.0312 5.21032C18.9955 5.34368 18.8584 5.42283 18.725 5.38709C18.5917 5.35136 18.5125 5.21427 18.5483 5.08091L19.0312 5.21032ZM18.9004 4.57908L18.6507 4.59217L18.9004 4.57908ZM13.0669 4.5371L13.3083 4.60181L13.0669 4.5371ZM20.9331 6.56077L20.6916 6.49607L20.9331 6.56077ZM20.8911 6.71768L21.1325 6.78238L20.8911 6.71768ZM19.0628 5.09264C19.027 5.22601 18.8899 5.30515 18.7566 5.26942C18.6232 5.23368 18.5441 5.0966 18.5798 4.96323L19.0628 5.09264ZM18.9579 4.51799L19.1994 4.5827L18.9579 4.51799ZM18.5037 8.09602L18.5684 7.85454L18.5037 8.09602ZM19.5548 4.17341L19.6195 3.93193L19.5548 4.17341ZM18.2031 7.24365L17.9682 7.15813L18.2031 7.24365ZM18.2957 6.98924L18.0608 6.90372C18.1066 6.77797 18.2433 6.71057 18.3709 6.75081C18.4986 6.79106 18.5719 6.92468 18.5372 7.05395L18.2957 6.98924ZM14.1835 7.49872C14.1835 7.36065 14.2954 7.24872 14.4335 7.24872C14.5715 7.24872 14.6835 7.36065 14.6835 7.49872H14.1835ZM14.5982 6.71768L14.5169 6.95409L14.5982 6.71768ZM15.5203 7.03468L15.6016 6.79826L15.5203 7.03468ZM16.684 7.63148L16.4805 7.7767L16.684 7.63148ZM15.6184 2.85984L18.0504 3.5115L17.921 3.99447L15.489 3.34281L15.6184 2.85984ZM18.1958 7.73993C18.0136 7.91557 17.7723 8.02238 17.5143 8.0359L17.4881 7.53659C17.6246 7.52943 17.7524 7.47293 17.8488 7.37993L18.1958 7.73993ZM18.0504 3.5115C18.3237 3.58472 18.5184 3.63369 18.6678 3.73076L18.3955 4.15009C18.3292 4.10703 18.2318 4.07775 17.921 3.99447L18.0504 3.5115ZM18.5483 5.08091C18.6315 4.77007 18.6549 4.67112 18.6507 4.59217L19.15 4.566C19.1594 4.74397 19.1044 4.93707 19.0312 5.21032L18.5483 5.08091ZM18.6678 3.73076C18.953 3.91594 19.1322 4.22645 19.15 4.566L18.6507 4.59217C18.6413 4.41245 18.5464 4.24811 18.3955 4.15009L18.6678 3.73076ZM15.489 3.34281C14.9824 3.20707 14.5242 3.21635 14.1588 3.39625C13.8005 3.57262 13.487 3.93509 13.3083 4.60181L12.8254 4.4724C13.0314 3.70334 13.4197 3.2028 13.9379 2.94767C14.4489 2.69607 15.0418 2.70534 15.6184 2.85984L15.489 3.34281ZM21.1746 6.62548L21.1325 6.78238L20.6496 6.65297L20.6916 6.49607L21.1746 6.62548ZM18.5798 4.96323L18.7164 4.45329L19.1994 4.5827L19.0628 5.09264L18.5798 4.96323ZM21.1325 6.78238C20.8182 7.95562 19.6122 8.65187 18.439 8.3375L18.5684 7.85454C19.4749 8.09744 20.4067 7.55948 20.6496 6.65297L21.1325 6.78238ZM19.6195 3.93193C20.7927 4.24629 21.4889 5.45224 21.1746 6.62548L20.6916 6.49607C20.9345 5.58956 20.3966 4.65779 19.49 4.41489L19.6195 3.93193ZM19.49 4.41489C19.3634 4.38097 19.2333 4.4561 19.1994 4.5827L18.7164 4.45329C18.8218 4.05995 19.2261 3.82653 19.6195 3.93193L19.49 4.41489ZM17.9682 7.15813L18.0608 6.90372L18.5307 7.07476L18.438 7.32917L17.9682 7.15813ZM18.439 8.3375C18.2552 8.28826 18.1108 8.19246 18.0185 8.04931C17.9297 7.91147 17.9072 7.75757 17.9093 7.62295C17.9134 7.36983 18.0126 7.07993 18.0543 6.92454L18.5372 7.05395C18.4797 7.26852 18.412 7.45941 18.4093 7.63088C18.4081 7.70856 18.4223 7.7529 18.4388 7.7784C18.4518 7.79857 18.4812 7.83118 18.5684 7.85454L18.439 8.3375ZM17.8488 7.37993C17.8518 7.37712 17.8532 7.37569 17.8545 7.37446C17.8555 7.37342 17.8558 7.3731 17.8558 7.37315C17.8552 7.37376 17.8552 7.37386 17.8565 7.37216C17.861 7.36656 17.8712 7.35245 17.8959 7.31449L18.3151 7.58702C18.2591 7.67317 18.2364 7.7008 18.1958 7.73993L17.8488 7.37993ZM18.438 7.32917C18.4052 7.41947 18.3817 7.48457 18.3151 7.58702L17.8959 7.31449C17.9304 7.26147 17.9383 7.24032 17.9682 7.15813L18.438 7.32917ZM15.6517 11.372C15.1123 11.372 14.7217 11.2358 14.4761 10.9474C14.2376 10.6675 14.1835 10.2971 14.1835 9.94406H14.6835C14.6835 10.2638 14.7368 10.4825 14.8567 10.6232C14.9695 10.7556 15.188 10.872 15.6517 10.872V11.372ZM17.12 9.94406C17.12 10.2971 17.0659 10.6675 16.8274 10.9474C16.5818 11.2358 16.1912 11.372 15.6517 11.372V10.872C16.1154 10.872 16.334 10.7556 16.4468 10.6232C16.5666 10.4825 16.62 10.2638 16.62 9.94406H17.12ZM14.1835 9.94406V7.49872H14.6835V9.94406H14.1835ZM16.62 9.94406V8.92602H17.12V9.94406H16.62ZM14.6795 6.48126L15.6016 6.79826L15.439 7.2711L14.5169 6.95409L14.6795 6.48126ZM14.5169 6.95409C13.9585 6.7621 13.4499 6.47862 13.1216 6.06852C12.7831 5.64565 12.6545 5.10996 12.8254 4.4724L13.3083 4.60181C13.1768 5.09286 13.2774 5.46302 13.512 5.75607C13.7568 6.06189 14.165 6.30438 14.6795 6.48126L14.5169 6.95409ZM16.62 8.92602C16.62 8.57568 16.6197 8.33378 16.5984 8.14622C16.5778 7.96501 16.5399 7.85995 16.4805 7.7767L16.8875 7.48625C17.0141 7.66367 17.0693 7.86125 17.0952 8.08984C17.1204 8.31207 17.12 8.58711 17.12 8.92602H16.62ZM15.6016 6.79826C15.9221 6.90845 16.1823 6.99751 16.3842 7.09362C16.592 7.19247 16.7609 7.30884 16.8875 7.48625L16.4805 7.7767C16.4211 7.69345 16.3341 7.62347 16.1694 7.54511C15.999 7.464 15.7703 7.385 15.439 7.2711L15.6016 6.79826Z" fill="#12252C"/>
<path d="M14.5689 3.99582C14.3523 3.93777 14.1296 4.06633 14.0715 4.28297C14.0135 4.49961 14.1421 4.72229 14.3587 4.78034L15.9277 5.20076C16.1444 5.25881 16.3671 5.13025 16.4251 4.91361C16.4832 4.69697 16.3546 4.47429 16.1379 4.41624L14.5689 3.99582Z" fill="#7B61FF"/>
<path d="M14.7692 3.79666C14.5526 3.73861 14.3299 3.86717 14.2719 4.08381C14.2138 4.30045 14.3424 4.52313 14.559 4.58118L16.1281 5.0016C16.3447 5.05965 16.5674 4.93109 16.6254 4.71445C16.6835 4.49781 16.5549 4.27513 16.3383 4.21708L14.7692 3.79666Z" stroke="#12252C" stroke-width="0.2" stroke-linecap="round"/>
<path d="M5.5 12H6.85253C7.36476 12 7.62088 12 7.81991 11.9084C8.03657 11.8087 8.21045 11.6348 8.31017 11.4181C8.40178 11.2191 8.40178 10.963 8.40178 10.4507M5.49883 10.7862C5.30151 10.7759 5.11702 10.6942 4.97767 10.5599C4.95592 10.539 4.94505 10.5285 4.89451 10.4507C4.84397 10.373 4.82827 10.3299 4.79687 10.2436L4.70426 9.98923C4.80339 10.3592 5.03825 10.9508 4.49631 11.096C3.45644 11.3746 2.38758 10.7575 2.10895 9.71767L2.0669 9.56076C1.78827 8.52089 2.40538 7.45203 3.44525 7.1734C3.70522 7.10374 3.97243 7.25802 4.04209 7.51798L4.17873 8.02792L5.49883 10.7862ZM4.21026 8.1456C4.13201 7.85356 4.09288 7.70754 4.09961 7.57907C4.11322 7.31944 4.2503 7.08202 4.46834 6.94042C4.57623 6.87035 4.72225 6.83123 5.01429 6.75297L7.44631 6.10132C8.52951 5.81107 9.54843 6.10132 9.93315 7.53709C10.2356 8.66571 9.47471 9.3488 8.40178 9.71767C7.77612 9.93277 7.45686 10.0844 7.13843 10.2305C6.81833 10.3774 6.65828 10.4508 6.57914 10.5742C6.5 10.6976 6.5 10.8628 6.5 11.1931C6.5 11.2119 6.5 11.2308 6.5 11.25L4.21026 8.1456ZM20 12.2929C20 13 20 14.0572 20 15C20 16.8564 20.2426 18 19.1213 19.1213C18.2426 20 16.8284 20 14 20H10C7.17157 20 5.75736 20 4.87868 19.1213C4 18.2426 4 17.8284 4 15V13.4988C4 13.034 4 12.8016 4.07577 12.6182C4.17728 12.3725 4.37246 12.1773 4.61817 12.0758C4.80157 12 5.03399 12 5.49883 12L20 12.2929ZM20 9C20 10.6569 18.6569 12 17 12H9L20 9ZM4.76389 6C5.31321 5.38625 6.1115 5 7 5H12L4.76389 6Z" stroke="#12252C" stroke-width="0.5" stroke-linecap="round" stroke-linejoin="round"/>
</svg>
