<svg width="51" height="17" viewBox="0 0 51 17" fill="none" xmlns="http://www.w3.org/2000/svg">
<path d="M20.4 0.300003L17.8 16.1H21.9L24.5 0.300003H20.4Z" fill="white"/>
<path d="M44.1 0.300003C43.1 0.300003 42.4 0.600002 42 1.6L35.9 16.2H40.2C40.2 16.2 40.9 14.2 41.1 13.8C41.6 13.8 45.7 13.8 46.3 13.8C46.4 14.4 46.8 16.2 46.8 16.2H50.6L47.3 0.300003H44.1ZM42.2 10.5C42.5 9.6 43.8 6.1 43.8 6.1C43.8 6.1 44.1 5.2 44.3 4.6L44.6 6C44.6 6 45.4 9.8 45.6 10.6H42.2V10.5Z" fill="white"/>
<path d="M32.7 6.7C31.3 6 30.4 5.5 30.4 4.7C30.4 4 31.1 3.3 32.7 3.3C34 3.3 35 3.6 35.8 3.9L36.2 4.1L36.8 0.700001C36 0.400001 34.7 0 33.1 0C29.1 0 26.2 2.2 26.2 5.2C26.2 7.5 28.2 8.8 29.8 9.5C31.4 10.3 31.9 10.8 31.9 11.5C31.9 12.6 30.6 13 29.4 13C27.8 13 26.9 12.8 25.5 12.2L25 11.9L24.4 15.4C25.4 15.8 27.1 16.2 29 16.2C33.3 16.2 36.1 14.1 36.1 10.8C36.2 9.2 35.1 7.8 32.7 6.7Z" fill="white"/>
<path d="M14.4 0.300003L10.4 11.1L10 8.9L8.6 1.6C8.4 0.600002 7.6 0.300003 6.7 0.300003H0.2C0.1 0.300003 0.1 0.400003 0 0.400003C0 0.500003 3.7998e-07 0.600002 0.1 0.600002C1.1 0.900002 2 1.2 2.8 1.6C3.7 2 4.3 2.8 4.6 3.7L7.9 16.1H12.2L18.6 0.300003H14.4Z" fill="white"/>
</svg>
